<svg data-v-fde0c5aa="" xmlns="http://www.w3.org/2000/svg" viewBox="0 0 300 300" class="iconLeft"><!----><defs data-v-fde0c5aa=""><!----></defs><rect data-v-fde0c5aa="" fill="transparent" x="0" y="0" width="300px" height="300px" class="logo-background-square"></rect><defs data-v-fde0c5aa=""><!----></defs><g data-v-fde0c5aa="" id="1cbaa17d-b88b-4c54-855f-339dfe25af3b" fill="#000000" transform="matrix(3.4711707365774545,0,0,3.4711707365774545,115.87699046281772,105.55165931399164)"><path d="M6.10 17.18L5.59 15.34L2.44 15.34L1.90 17.18L0.18 17.18L2.69 8.43L5.32 8.43L7.83 17.18L6.10 17.18ZM2.80 14.03L5.21 14.03L4.07 10.04L3.95 10.04L2.80 14.03ZM9.14 17.18L9.14 8.43L10.86 8.43L10.86 15.75L13.96 15.75L13.96 17.18L9.14 17.18ZM15.20 8.43L16.93 8.43L16.93 17.18L15.20 17.18L15.20 8.43ZM20.92 13.47L20.92 15.75L24.64 15.75L24.64 17.18L19.19 17.18L19.19 8.43L24.63 8.43L24.42 9.86L20.92 9.86L20.92 12.14L24.11 12.14L24.11 13.47L20.92 13.47ZM26.49 17.18L26.49 8.43L28.17 8.43L31.22 13.34L31.22 13.34Q31.43 13.69 31.50 13.86L31.50 13.86L31.50 13.86Q31.57 14.03 31.58 14.24L31.58 14.24L31.67 14.24L31.67 8.43L33.39 8.43L33.39 17.18L31.70 17.18L28.66 12.26L28.66 12.26Q28.45 11.93 28.39 11.76L28.39 11.76L28.39 11.76Q28.32 11.59 28.29 11.37L28.29 11.37L28.21 11.37L28.21 17.18L26.49 17.18ZM35.41 15.60L35.41 15.60Q35.99 15.76 36.74 15.86L36.74 15.86L36.74 15.86Q37.48 15.95 38.18 15.95L38.18 15.95L38.18 15.95Q38.89 15.95 39.65 15.86L39.65 15.86L39.65 13.69L38.33 13.58L38.33 13.58Q37.10 13.48 36.45 13.24L36.45 13.24L36.45 13.24Q35.80 12.99 35.53 12.48L35.53 12.48L35.53 12.48Q35.27 11.97 35.27 11.05L35.27 11.05L35.27 11.05Q35.27 10.00 35.55 9.38L35.55 9.38L35.55 9.38Q35.83 8.76 36.44 8.49L36.44 8.49L36.44 8.49Q37.06 8.22 38.12 8.22L38.12 8.22L38.12 8.22Q39.61 8.22 41.05 8.53L41.05 8.53L40.84 9.88L40.84 9.88Q39.68 9.66 38.33 9.66L38.33 9.66L38.33 9.66Q37.63 9.66 37.14 9.73L37.14 9.73L37.14 11.93L38.57 12.03L38.57 12.03Q39.69 12.11 40.33 12.39L40.33 12.39L40.33 12.39Q40.96 12.67 41.24 13.22L41.24 13.22L41.24 13.22Q41.52 13.76 41.52 14.70L41.52 14.70L41.52 14.70Q41.52 15.69 41.20 16.28L41.20 16.28L41.20 16.28Q40.87 16.87 40.14 17.13L40.14 17.13L40.14 17.13Q39.41 17.39 38.18 17.39L38.18 17.39L38.18 17.39Q36.57 17.39 35.15 17.01L35.15 17.01L35.41 15.60Z"></path></g><defs data-v-fde0c5aa=""><linearGradient data-v-fde0c5aa="" gradientTransform="rotate(25)" id="6184a5bf-669b-41de-8e75-64b00defaede" x1="0%" y1="0%" x2="100%" y2="0%"><stop data-v-fde0c5aa="" offset="0%" stop-color="#DE3837" stop-opacity="1"></stop><stop data-v-fde0c5aa="" offset="100%" stop-color="#D2D4D6" stop-opacity="1"></stop></linearGradient></defs><g data-v-fde0c5aa="" id="e0de9370-80bf-48cd-b25d-e99474039eba" stroke="none" fill="url(#6184a5bf-669b-41de-8e75-64b00defaede)" transform="matrix(1.0583633536704902,0,0,1.0583633536704902,37.88327329265902,116.13184278222171)"><path d="M61.805 25.757l-.223.028c-21.59 17.257-49.594 10.412-58.448 7.601 2.11 1.305 11.183 6.809 19.897 10.592l-6.521 8.809c-.294.121-.831.281-1.187.129-.074-.033-.299-.129-.442-.631l-1.519.434c.29 1.016.893 1.459 1.348 1.652.318.135.648.186.963.186.863 0 1.613-.383 1.723-.441l.158-.084 6.973-9.42c5.357 2.209 10.416 3.629 13.437 2.848 2.904-.752 6.466-3.346 9.941-6.486l6.952 9.391.156.084c.11.059.86.441 1.725.441.314 0 .644-.051.963-.186.454-.193 1.057-.637 1.348-1.652l-1.52-.434c-.143.502-.368.598-.442.631-.357.151-.896-.009-1.187-.128l-6.829-9.227c6.685-6.302 12.734-14.137 12.734-14.137zM39.828 16.776c-.789-4.174-4.449-7.332-8.853-7.332a9.016 9.016 0 0 0-9.016 9.016c0 .258.018.512.038.764 3.319.943 10.667 2.167 17.831-2.448zm-10.599-4.971s-2.742 1.027-1.971 6.424h-2.313s.513-6.596 4.284-6.424z"></path><path d="M62 23.413l-20.761-6.299c.006.029.016.058.021.088-8.313 5.354-16.837 3.935-20.687 2.84l-.003-.038L2 31.176s35.252 13.814 60-7.763zM35.06 23.1l4.283 8.138-.698.368-4.283-8.139.698-.367zm-1.603.402l2.742 8.31-.75.247-2.741-8.309.749-.248zm-1.695.083l.943 9.08-.785.082-.943-9.08.785-.082zm-2.328.012l.788.059-.686 9.08-.788-.06.686-9.079zm-18.367 8.767l-4.454-1.37 14.734-9.252 2.313.6-12.593 10.022zm14.777.262l1.885-9.08.772.16-1.885 9.08-.772-.16z"></path></g><!----></svg>